<mxfile host="app.diagrams.net" agent="Mozilla/5.0 (Windows NT 10.0; Win64; x64) AppleWebKit/537.36 (KHTML, like Gecko) Chrome/135.0.0.0 Safari/537.36 Edg/135.0.0.0" version="26.2.12">
  <diagram id="_vHAiK_Bz7Mo9tqoQNON" name="Page-1">
    <mxGraphModel dx="2001" dy="596" grid="1" gridSize="10" guides="1" tooltips="1" connect="1" arrows="1" fold="1" page="1" pageScale="1" pageWidth="850" pageHeight="1100" math="0" shadow="0">
      <root>
        <mxCell id="0" />
        <mxCell id="1" parent="0" />
        <mxCell id="32" value="" style="edgeStyle=none;html=1;strokeColor=default;endArrow=block;endFill=0;exitX=0.5;exitY=0;exitDx=0;exitDy=0;" parent="1" source="24" target="olXzEfhFdtPJJ66kYpWC-100" edge="1">
          <mxGeometry relative="1" as="geometry">
            <mxPoint x="400" y="590" as="targetPoint" />
          </mxGeometry>
        </mxCell>
        <mxCell id="2" value="&lt;i&gt;Empleado&lt;/i&gt;" style="swimlane;fontStyle=0;align=center;verticalAlign=top;childLayout=stackLayout;horizontal=1;startSize=55;horizontalStack=0;resizeParent=1;resizeParentMax=0;resizeLast=0;collapsible=0;marginBottom=0;html=1;whiteSpace=wrap;" parent="1" vertex="1">
          <mxGeometry x="350" y="350" width="270" height="380" as="geometry" />
        </mxCell>
        <mxCell id="4" value="&lt;span style=&quot;color: rgb(0, 0, 0);&quot;&gt;-&amp;nbsp;&lt;/span&gt;nombre: String" style="text;html=1;strokeColor=none;fillColor=none;align=left;verticalAlign=middle;spacingLeft=4;spacingRight=4;overflow=hidden;rotatable=0;points=[[0,0.5],[1,0.5]];portConstraint=eastwest;whiteSpace=wrap;" parent="2" vertex="1">
          <mxGeometry y="55" width="270" height="20" as="geometry" />
        </mxCell>
        <mxCell id="5" value="&lt;font color=&quot;#000000&quot;&gt;-&amp;nbsp;direccion: String&lt;/font&gt;" style="text;html=1;strokeColor=none;fillColor=none;align=left;verticalAlign=middle;spacingLeft=4;spacingRight=4;overflow=hidden;rotatable=0;points=[[0,0.5],[1,0.5]];portConstraint=eastwest;fontColor=#808080;whiteSpace=wrap;" parent="2" vertex="1">
          <mxGeometry y="75" width="270" height="20" as="geometry" />
        </mxCell>
        <mxCell id="6" value="&lt;span style=&quot;color: rgb(0, 0, 0);&quot;&gt;-&amp;nbsp;&lt;/span&gt;estadoCivil: String" style="text;html=1;strokeColor=none;fillColor=none;align=left;verticalAlign=middle;spacingLeft=4;spacingRight=4;overflow=hidden;rotatable=0;points=[[0,0.5],[1,0.5]];portConstraint=eastwest;whiteSpace=wrap;" parent="2" vertex="1">
          <mxGeometry y="95" width="270" height="20" as="geometry" />
        </mxCell>
        <mxCell id="22" value="&lt;span style=&quot;color: rgb(0, 0, 0);&quot;&gt;-&amp;nbsp;&lt;/span&gt;fechaNacimiento: Date" style="text;html=1;strokeColor=none;fillColor=none;align=left;verticalAlign=middle;spacingLeft=4;spacingRight=4;overflow=hidden;rotatable=0;points=[[0,0.5],[1,0.5]];portConstraint=eastwest;whiteSpace=wrap;" parent="2" vertex="1">
          <mxGeometry y="115" width="270" height="20" as="geometry" />
        </mxCell>
        <mxCell id="23" value="&lt;span style=&quot;color: rgb(0, 0, 0);&quot;&gt;-&amp;nbsp;&lt;/span&gt;sueldoBasico: double" style="text;html=1;strokeColor=none;fillColor=none;align=left;verticalAlign=middle;spacingLeft=4;spacingRight=4;overflow=hidden;rotatable=0;points=[[0,0.5],[1,0.5]];portConstraint=eastwest;whiteSpace=wrap;" parent="2" vertex="1">
          <mxGeometry y="135" width="270" height="20" as="geometry" />
        </mxCell>
        <mxCell id="7" value="" style="line;strokeWidth=1;fillColor=none;align=left;verticalAlign=middle;spacingTop=-1;spacingLeft=3;spacingRight=3;rotatable=0;labelPosition=right;points=[];portConstraint=eastwest;" parent="2" vertex="1">
          <mxGeometry y="155" width="270" height="8" as="geometry" />
        </mxCell>
        <mxCell id="9" value="+ edad(): int" style="text;html=1;strokeColor=none;fillColor=none;align=left;verticalAlign=middle;spacingLeft=4;spacingRight=4;overflow=hidden;rotatable=0;points=[[0,0.5],[1,0.5]];portConstraint=eastwest;whiteSpace=wrap;" parent="2" vertex="1">
          <mxGeometry y="163" width="270" height="20" as="geometry" />
        </mxCell>
        <mxCell id="37" value="&lt;span style=&quot;color: rgb(0, 0, 0);&quot;&gt;+&amp;nbsp;&lt;/span&gt;sueldoBruto(): double" style="text;html=1;strokeColor=none;fillColor=none;align=left;verticalAlign=middle;spacingLeft=4;spacingRight=4;overflow=hidden;rotatable=0;points=[[0,0.5],[1,0.5]];portConstraint=eastwest;whiteSpace=wrap;" parent="2" vertex="1">
          <mxGeometry y="183" width="270" height="20" as="geometry" />
        </mxCell>
        <mxCell id="38" value="&lt;span style=&quot;color: rgb(0, 0, 0);&quot;&gt;+&amp;nbsp;&lt;/span&gt;sueldoNeto(): double" style="text;html=1;strokeColor=none;fillColor=none;align=left;verticalAlign=middle;spacingLeft=4;spacingRight=4;overflow=hidden;rotatable=0;points=[[0,0.5],[1,0.5]];portConstraint=eastwest;whiteSpace=wrap;" parent="2" vertex="1">
          <mxGeometry y="203" width="270" height="20" as="geometry" />
        </mxCell>
        <mxCell id="olXzEfhFdtPJJ66kYpWC-119" value="&lt;span style=&quot;color: rgb(0, 0, 0);&quot;&gt;+&amp;nbsp;&lt;/span&gt;generarRecibo(): void" style="text;html=1;strokeColor=none;fillColor=none;align=left;verticalAlign=middle;spacingLeft=4;spacingRight=4;overflow=hidden;rotatable=0;points=[[0,0.5],[1,0.5]];portConstraint=eastwest;whiteSpace=wrap;" vertex="1" parent="2">
          <mxGeometry y="223" width="270" height="20" as="geometry" />
        </mxCell>
        <mxCell id="olXzEfhFdtPJJ66kYpWC-101" value="&lt;i&gt;&lt;span style=&quot;color: rgb(0, 0, 0);&quot;&gt;#&amp;nbsp;&lt;/span&gt;montoRetenciones(): double&lt;/i&gt;" style="text;html=1;strokeColor=none;fillColor=none;align=left;verticalAlign=middle;spacingLeft=4;spacingRight=4;overflow=hidden;rotatable=0;points=[[0,0.5],[1,0.5]];portConstraint=eastwest;whiteSpace=wrap;" vertex="1" parent="2">
          <mxGeometry y="243" width="270" height="20" as="geometry" />
        </mxCell>
        <mxCell id="olXzEfhFdtPJJ66kYpWC-104" value="&lt;i&gt;&lt;span style=&quot;color: rgb(0, 0, 0);&quot;&gt;#&amp;nbsp;&lt;/span&gt;montoBonificaciones(): double&lt;/i&gt;" style="text;html=1;strokeColor=none;fillColor=none;align=left;verticalAlign=middle;spacingLeft=4;spacingRight=4;overflow=hidden;rotatable=0;points=[[0,0.5],[1,0.5]];portConstraint=eastwest;whiteSpace=wrap;" vertex="1" parent="2">
          <mxGeometry y="263" width="270" height="20" as="geometry" />
        </mxCell>
        <mxCell id="olXzEfhFdtPJJ66kYpWC-103" value="&lt;i&gt;&lt;span style=&quot;color: rgb(0, 0, 0);&quot;&gt;#&amp;nbsp;&lt;/span&gt;conceptos(): String[]&lt;/i&gt;" style="text;html=1;strokeColor=none;fillColor=none;align=left;verticalAlign=middle;spacingLeft=4;spacingRight=4;overflow=hidden;rotatable=0;points=[[0,0.5],[1,0.5]];portConstraint=eastwest;whiteSpace=wrap;" vertex="1" parent="2">
          <mxGeometry y="283" width="270" height="20" as="geometry" />
        </mxCell>
        <mxCell id="olXzEfhFdtPJJ66kYpWC-100" value="&lt;span style=&quot;color: rgb(0, 0, 0);&quot;&gt;+&amp;nbsp;&lt;/span&gt;new(String nombre,&amp;nbsp;&lt;div&gt;String direccion,&amp;nbsp;&lt;/div&gt;&lt;div&gt;String estadoCivil,&amp;nbsp;&lt;/div&gt;&lt;div&gt;Date fechaNacimiento,&amp;nbsp;&lt;/div&gt;&lt;div&gt;double sueldoBasico): Empleado&lt;/div&gt;" style="text;html=1;strokeColor=none;fillColor=none;align=left;verticalAlign=middle;spacingLeft=4;spacingRight=4;overflow=hidden;rotatable=0;points=[[0,0.5],[1,0.5]];portConstraint=eastwest;whiteSpace=wrap;" vertex="1" parent="2">
          <mxGeometry y="303" width="270" height="77" as="geometry" />
        </mxCell>
        <mxCell id="10" value="Empresa" style="swimlane;fontStyle=0;align=center;verticalAlign=top;childLayout=stackLayout;horizontal=1;startSize=55;horizontalStack=0;resizeParent=1;resizeParentMax=0;resizeLast=0;collapsible=0;marginBottom=0;html=1;whiteSpace=wrap;" parent="1" vertex="1">
          <mxGeometry x="-80" y="350" width="260" height="230" as="geometry" />
        </mxCell>
        <mxCell id="12" value="&lt;span style=&quot;color: rgb(0, 0, 0);&quot;&gt;-&amp;nbsp;&lt;/span&gt;nombre: String" style="text;html=1;strokeColor=none;fillColor=none;align=left;verticalAlign=middle;spacingLeft=4;spacingRight=4;overflow=hidden;rotatable=0;points=[[0,0.5],[1,0.5]];portConstraint=eastwest;whiteSpace=wrap;" parent="10" vertex="1">
          <mxGeometry y="55" width="260" height="20" as="geometry" />
        </mxCell>
        <mxCell id="13" value="&lt;font style=&quot;color: rgb(0, 0, 0);&quot;&gt;&lt;span&gt;-&amp;nbsp;&lt;/span&gt;CUIT: String&lt;/font&gt;" style="text;html=1;strokeColor=none;fillColor=none;align=left;verticalAlign=middle;spacingLeft=4;spacingRight=4;overflow=hidden;rotatable=0;points=[[0,0.5],[1,0.5]];portConstraint=eastwest;fontColor=#808080;whiteSpace=wrap;" parent="10" vertex="1">
          <mxGeometry y="75" width="260" height="20" as="geometry" />
        </mxCell>
        <mxCell id="15" value="" style="line;strokeWidth=1;fillColor=none;align=left;verticalAlign=middle;spacingTop=-1;spacingLeft=3;spacingRight=3;rotatable=0;labelPosition=right;points=[];portConstraint=eastwest;" parent="10" vertex="1">
          <mxGeometry y="95" width="260" height="8" as="geometry" />
        </mxCell>
        <mxCell id="60" value="+ montoTotalSueldosNetos(): double" style="text;html=1;strokeColor=none;fillColor=none;align=left;verticalAlign=middle;spacingLeft=4;spacingRight=4;overflow=hidden;rotatable=0;points=[[0,0.5],[1,0.5]];portConstraint=eastwest;whiteSpace=wrap;" parent="10" vertex="1">
          <mxGeometry y="103" width="260" height="20" as="geometry" />
        </mxCell>
        <mxCell id="62" value="+ montoTotalSueldosBrutos(): double" style="text;html=1;strokeColor=none;fillColor=none;align=left;verticalAlign=middle;spacingLeft=4;spacingRight=4;overflow=hidden;rotatable=0;points=[[0,0.5],[1,0.5]];portConstraint=eastwest;whiteSpace=wrap;" parent="10" vertex="1">
          <mxGeometry y="123" width="260" height="20" as="geometry" />
        </mxCell>
        <mxCell id="63" value="+ retencionesTotales(): double" style="text;html=1;strokeColor=none;fillColor=none;align=left;verticalAlign=middle;spacingLeft=4;spacingRight=4;overflow=hidden;rotatable=0;points=[[0,0.5],[1,0.5]];portConstraint=eastwest;whiteSpace=wrap;" parent="10" vertex="1">
          <mxGeometry y="143" width="260" height="20" as="geometry" />
        </mxCell>
        <mxCell id="olXzEfhFdtPJJ66kYpWC-99" value="+ liquidarSueldos(): void" style="text;html=1;strokeColor=none;fillColor=none;align=left;verticalAlign=middle;spacingLeft=4;spacingRight=4;overflow=hidden;rotatable=0;points=[[0,0.5],[1,0.5]];portConstraint=eastwest;whiteSpace=wrap;" vertex="1" parent="10">
          <mxGeometry y="163" width="260" height="20" as="geometry" />
        </mxCell>
        <mxCell id="65" value="+ new(String nombre,&amp;nbsp;&lt;div&gt;String cuit,&amp;nbsp;&lt;/div&gt;&lt;div&gt;Empleado[] empleados): Empresa&lt;/div&gt;" style="text;html=1;strokeColor=none;fillColor=none;align=left;verticalAlign=middle;spacingLeft=4;spacingRight=4;overflow=hidden;rotatable=0;points=[[0,0.5],[1,0.5]];portConstraint=eastwest;whiteSpace=wrap;" parent="10" vertex="1">
          <mxGeometry y="183" width="260" height="47" as="geometry" />
        </mxCell>
        <mxCell id="18" style="edgeStyle=none;html=1;endArrow=blockThin;endFill=1;entryX=0;entryY=0.737;entryDx=0;entryDy=0;exitX=1;exitY=0.737;exitDx=0;exitDy=0;exitPerimeter=0;entryPerimeter=0;" parent="1" source="13" target="5" edge="1">
          <mxGeometry relative="1" as="geometry">
            <mxPoint x="340" y="430" as="targetPoint" />
          </mxGeometry>
        </mxCell>
        <mxCell id="19" value="&lt;font style=&quot;font-size: 11px;&quot;&gt;1&lt;/font&gt;" style="text;strokeColor=none;align=center;fillColor=none;html=1;verticalAlign=middle;whiteSpace=wrap;rounded=0;" parent="1" vertex="1">
          <mxGeometry x="167" y="410" width="60" height="30" as="geometry" />
        </mxCell>
        <mxCell id="21" value="&lt;font style=&quot;font-size: 11px;&quot;&gt;*&lt;/font&gt;" style="text;strokeColor=none;align=center;fillColor=none;html=1;verticalAlign=middle;whiteSpace=wrap;rounded=0;" parent="1" vertex="1">
          <mxGeometry x="307" y="410" width="60" height="30" as="geometry" />
        </mxCell>
        <mxCell id="24" value="EmpleadoPlantaPermanente" style="swimlane;fontStyle=0;align=center;verticalAlign=top;childLayout=stackLayout;horizontal=1;startSize=55;horizontalStack=0;resizeParent=1;resizeParentMax=0;resizeLast=0;collapsible=0;marginBottom=0;html=1;whiteSpace=wrap;" parent="1" vertex="1">
          <mxGeometry x="-80" y="840" width="360" height="310" as="geometry" />
        </mxCell>
        <mxCell id="25" value="- cantidadHijos: int" style="text;html=1;strokeColor=none;fillColor=none;align=left;verticalAlign=middle;spacingLeft=4;spacingRight=4;overflow=hidden;rotatable=0;points=[[0,0.5],[1,0.5]];portConstraint=eastwest;whiteSpace=wrap;" parent="24" vertex="1">
          <mxGeometry y="55" width="360" height="20" as="geometry" />
        </mxCell>
        <mxCell id="26" value="&lt;font color=&quot;#000000&quot;&gt;&lt;span style=&quot;font-family: sans-serif; white-space: pre; background-color: rgb(255, 255, 255);&quot;&gt;&lt;font&gt;&lt;span style=&quot;font-family: Helvetica; white-space: normal; background-color: rgb(251, 251, 251);&quot;&gt;-&amp;nbsp;&lt;/span&gt;añosAntigüedad&lt;/font&gt;&lt;/span&gt;: int&lt;/font&gt;" style="text;html=1;strokeColor=none;fillColor=none;align=left;verticalAlign=middle;spacingLeft=4;spacingRight=4;overflow=hidden;rotatable=0;points=[[0,0.5],[1,0.5]];portConstraint=eastwest;fontColor=#808080;whiteSpace=wrap;" parent="24" vertex="1">
          <mxGeometry y="75" width="360" height="20" as="geometry" />
        </mxCell>
        <mxCell id="48" value="&lt;span style=&quot;color: rgb(0, 0, 0);&quot;&gt;-&amp;nbsp;&lt;/span&gt;tieneConyuge: boolean" style="text;html=1;strokeColor=none;fillColor=none;align=left;verticalAlign=middle;spacingLeft=4;spacingRight=4;overflow=hidden;rotatable=0;points=[[0,0.5],[1,0.5]];portConstraint=eastwest;whiteSpace=wrap;" parent="24" vertex="1">
          <mxGeometry y="95" width="360" height="20" as="geometry" />
        </mxCell>
        <mxCell id="30" value="" style="line;strokeWidth=1;fillColor=none;align=left;verticalAlign=middle;spacingTop=-1;spacingLeft=3;spacingRight=3;rotatable=0;labelPosition=right;points=[];portConstraint=eastwest;" parent="24" vertex="1">
          <mxGeometry y="115" width="360" height="8" as="geometry" />
        </mxCell>
        <mxCell id="olXzEfhFdtPJJ66kYpWC-105" value="# montoRetenciones(): double" style="text;html=1;strokeColor=none;fillColor=none;align=left;verticalAlign=middle;spacingLeft=4;spacingRight=4;overflow=hidden;rotatable=0;points=[[0,0.5],[1,0.5]];portConstraint=eastwest;whiteSpace=wrap;" vertex="1" parent="24">
          <mxGeometry y="123" width="360" height="20" as="geometry" />
        </mxCell>
        <mxCell id="olXzEfhFdtPJJ66kYpWC-111" value="# montoBonificaciones(): double" style="text;html=1;strokeColor=none;fillColor=none;align=left;verticalAlign=middle;spacingLeft=4;spacingRight=4;overflow=hidden;rotatable=0;points=[[0,0.5],[1,0.5]];portConstraint=eastwest;whiteSpace=wrap;" vertex="1" parent="24">
          <mxGeometry y="143" width="360" height="20" as="geometry" />
        </mxCell>
        <mxCell id="olXzEfhFdtPJJ66kYpWC-114" value="# conceptos(): String[]" style="text;html=1;strokeColor=none;fillColor=none;align=left;verticalAlign=middle;spacingLeft=4;spacingRight=4;overflow=hidden;rotatable=0;points=[[0,0.5],[1,0.5]];portConstraint=eastwest;whiteSpace=wrap;" vertex="1" parent="24">
          <mxGeometry y="163" width="360" height="20" as="geometry" />
        </mxCell>
        <mxCell id="olXzEfhFdtPJJ66kYpWC-108" value="&lt;div&gt;+ new(String nombre,&amp;nbsp;&lt;/div&gt;&lt;div&gt;String direccion,&amp;nbsp;&lt;/div&gt;&lt;div&gt;String estadoCivil,&amp;nbsp;&lt;/div&gt;&lt;div&gt;Date fechaNacimiento,&lt;/div&gt;&lt;div&gt;&lt;span style=&quot;background-color: transparent; color: light-dark(rgb(0, 0, 0), rgb(255, 255, 255));&quot;&gt;double sueldoBasico,&amp;nbsp;&lt;/span&gt;&lt;/div&gt;&lt;div&gt;&lt;span style=&quot;background-color: transparent; color: light-dark(rgb(0, 0, 0), rgb(255, 255, 255));&quot;&gt;int cantidadHijos,&amp;nbsp;&lt;/span&gt;&lt;/div&gt;&lt;div&gt;&lt;span style=&quot;background-color: transparent; color: light-dark(rgb(0, 0, 0), rgb(255, 255, 255));&quot;&gt;int añosAntiguedad,&amp;nbsp;&lt;/span&gt;&lt;/div&gt;&lt;div&gt;&lt;span style=&quot;background-color: transparent; color: light-dark(rgb(0, 0, 0), rgb(255, 255, 255));&quot;&gt;boolean tieneConyuge): EmpleadoPlantaPermanente&lt;/span&gt;&lt;/div&gt;" style="text;html=1;strokeColor=none;fillColor=none;align=left;verticalAlign=middle;spacingLeft=4;spacingRight=4;overflow=hidden;rotatable=0;points=[[0,0.5],[1,0.5]];portConstraint=eastwest;whiteSpace=wrap;" vertex="1" parent="24">
          <mxGeometry y="183" width="360" height="127" as="geometry" />
        </mxCell>
        <mxCell id="33" value="EmpleadoPlantaTemporaria" style="swimlane;fontStyle=0;align=center;verticalAlign=top;childLayout=stackLayout;horizontal=1;startSize=55;horizontalStack=0;resizeParent=1;resizeParentMax=0;resizeLast=0;collapsible=0;marginBottom=0;html=1;whiteSpace=wrap;" parent="1" vertex="1">
          <mxGeometry x="335" y="840" width="300" height="280" as="geometry" />
        </mxCell>
        <mxCell id="34" value="&lt;span style=&quot;color: rgb(0, 0, 0);&quot;&gt;-&amp;nbsp;&lt;/span&gt;fechaFinDesignacion: Date" style="text;html=1;strokeColor=none;fillColor=none;align=left;verticalAlign=middle;spacingLeft=4;spacingRight=4;overflow=hidden;rotatable=0;points=[[0,0.5],[1,0.5]];portConstraint=eastwest;whiteSpace=wrap;" parent="33" vertex="1">
          <mxGeometry y="55" width="300" height="20" as="geometry" />
        </mxCell>
        <mxCell id="35" value="&lt;font color=&quot;#000000&quot;&gt;&lt;span style=&quot;font-family: sans-serif; white-space: pre; background-color: rgb(255, 255, 255);&quot;&gt;&lt;font&gt;&lt;span style=&quot;font-family: Helvetica; white-space: normal; background-color: rgb(251, 251, 251);&quot;&gt;-&amp;nbsp;&lt;/span&gt;cantHorasExtra&lt;/font&gt;&lt;/span&gt;: int&lt;/font&gt;" style="text;html=1;strokeColor=none;fillColor=none;align=left;verticalAlign=middle;spacingLeft=4;spacingRight=4;overflow=hidden;rotatable=0;points=[[0,0.5],[1,0.5]];portConstraint=eastwest;fontColor=#808080;whiteSpace=wrap;" parent="33" vertex="1">
          <mxGeometry y="75" width="300" height="20" as="geometry" />
        </mxCell>
        <mxCell id="36" value="" style="line;strokeWidth=1;fillColor=none;align=left;verticalAlign=middle;spacingTop=-1;spacingLeft=3;spacingRight=3;rotatable=0;labelPosition=right;points=[];portConstraint=eastwest;" parent="33" vertex="1">
          <mxGeometry y="95" width="300" height="8" as="geometry" />
        </mxCell>
        <mxCell id="olXzEfhFdtPJJ66kYpWC-106" value="# montoRetenciones(): double" style="text;html=1;strokeColor=none;fillColor=none;align=left;verticalAlign=middle;spacingLeft=4;spacingRight=4;overflow=hidden;rotatable=0;points=[[0,0.5],[1,0.5]];portConstraint=eastwest;whiteSpace=wrap;" vertex="1" parent="33">
          <mxGeometry y="103" width="300" height="20" as="geometry" />
        </mxCell>
        <mxCell id="olXzEfhFdtPJJ66kYpWC-109" value="# montoBonificaciones(): double" style="text;html=1;strokeColor=none;fillColor=none;align=left;verticalAlign=middle;spacingLeft=4;spacingRight=4;overflow=hidden;rotatable=0;points=[[0,0.5],[1,0.5]];portConstraint=eastwest;whiteSpace=wrap;" vertex="1" parent="33">
          <mxGeometry y="123" width="300" height="20" as="geometry" />
        </mxCell>
        <mxCell id="olXzEfhFdtPJJ66kYpWC-112" value="# conceptos(): String[]" style="text;html=1;strokeColor=none;fillColor=none;align=left;verticalAlign=middle;spacingLeft=4;spacingRight=4;overflow=hidden;rotatable=0;points=[[0,0.5],[1,0.5]];portConstraint=eastwest;whiteSpace=wrap;" vertex="1" parent="33">
          <mxGeometry y="143" width="300" height="20" as="geometry" />
        </mxCell>
        <mxCell id="olXzEfhFdtPJJ66kYpWC-115" value="&lt;div&gt;+ new&lt;span style=&quot;background-color: transparent;&quot;&gt;(String nombre,&amp;nbsp;&lt;/span&gt;&lt;/div&gt;&lt;div&gt;&lt;span style=&quot;background-color: transparent;&quot;&gt;String direccion,&amp;nbsp;&lt;/span&gt;&lt;/div&gt;&lt;div&gt;&lt;span style=&quot;background-color: transparent;&quot;&gt;String estadoCivil,&amp;nbsp;&lt;/span&gt;&lt;/div&gt;&lt;div&gt;&lt;span style=&quot;background-color: transparent;&quot;&gt;Date fechaNacimiento,&lt;/span&gt;&lt;/div&gt;&lt;div&gt;&lt;span style=&quot;white-space: normal;&quot;&gt;double sueldoBasico,&amp;nbsp;&lt;/span&gt;&lt;/div&gt;&lt;div&gt;&lt;span style=&quot;white-space: normal;&quot;&gt;Date fechaFinDesignacion,&amp;nbsp;&lt;/span&gt;&lt;/div&gt;&lt;div&gt;&lt;span style=&quot;white-space: normal;&quot;&gt;int cantidadHorasExtra): EmpleadoPlantaTemporaria&lt;/span&gt;&lt;/div&gt;" style="text;html=1;strokeColor=none;fillColor=none;align=left;verticalAlign=middle;spacingLeft=4;spacingRight=4;overflow=hidden;rotatable=0;points=[[0,0.5],[1,0.5]];portConstraint=eastwest;whiteSpace=wrap;" vertex="1" parent="33">
          <mxGeometry y="163" width="300" height="117" as="geometry" />
        </mxCell>
        <mxCell id="40" style="edgeStyle=none;html=1;endArrow=block;endFill=0;" parent="1" source="33" target="2" edge="1">
          <mxGeometry relative="1" as="geometry" />
        </mxCell>
        <mxCell id="67" value="ReciboDeHaberes" style="swimlane;fontStyle=0;align=center;verticalAlign=top;childLayout=stackLayout;horizontal=1;startSize=55;horizontalStack=0;resizeParent=1;resizeParentMax=0;resizeLast=0;collapsible=0;marginBottom=0;html=1;whiteSpace=wrap;" parent="1" vertex="1">
          <mxGeometry x="840" y="350" width="270" height="280" as="geometry" />
        </mxCell>
        <mxCell id="69" value="- nombreEmpleado: String" style="text;html=1;strokeColor=none;fillColor=none;align=left;verticalAlign=middle;spacingLeft=4;spacingRight=4;overflow=hidden;rotatable=0;points=[[0,0.5],[1,0.5]];portConstraint=eastwest;whiteSpace=wrap;" parent="67" vertex="1">
          <mxGeometry y="55" width="270" height="20" as="geometry" />
        </mxCell>
        <mxCell id="85" value="- direccion: String" style="text;html=1;strokeColor=none;fillColor=none;align=left;verticalAlign=middle;spacingLeft=4;spacingRight=4;overflow=hidden;rotatable=0;points=[[0,0.5],[1,0.5]];portConstraint=eastwest;whiteSpace=wrap;" parent="67" vertex="1">
          <mxGeometry y="75" width="270" height="20" as="geometry" />
        </mxCell>
        <mxCell id="86" value="- fechaEmision: Date" style="text;html=1;strokeColor=none;fillColor=none;align=left;verticalAlign=middle;spacingLeft=4;spacingRight=4;overflow=hidden;rotatable=0;points=[[0,0.5],[1,0.5]];portConstraint=eastwest;whiteSpace=wrap;" parent="67" vertex="1">
          <mxGeometry y="95" width="270" height="20" as="geometry" />
        </mxCell>
        <mxCell id="87" value="- sueldoBruto: double" style="text;html=1;strokeColor=none;fillColor=none;align=left;verticalAlign=middle;spacingLeft=4;spacingRight=4;overflow=hidden;rotatable=0;points=[[0,0.5],[1,0.5]];portConstraint=eastwest;whiteSpace=wrap;" parent="67" vertex="1">
          <mxGeometry y="115" width="270" height="20" as="geometry" />
        </mxCell>
        <mxCell id="88" value="- sueldoNeto: String" style="text;html=1;strokeColor=none;fillColor=none;align=left;verticalAlign=middle;spacingLeft=4;spacingRight=4;overflow=hidden;rotatable=0;points=[[0,0.5],[1,0.5]];portConstraint=eastwest;whiteSpace=wrap;" parent="67" vertex="1">
          <mxGeometry y="135" width="270" height="20" as="geometry" />
        </mxCell>
        <mxCell id="84" value="- desgloceConceptos: String" style="text;html=1;strokeColor=none;fillColor=none;align=left;verticalAlign=middle;spacingLeft=4;spacingRight=4;overflow=hidden;rotatable=0;points=[[0,0.5],[1,0.5]];portConstraint=eastwest;whiteSpace=wrap;" parent="67" vertex="1">
          <mxGeometry y="155" width="270" height="20" as="geometry" />
        </mxCell>
        <mxCell id="72" value="" style="line;strokeWidth=1;fillColor=none;align=left;verticalAlign=middle;spacingTop=-1;spacingLeft=3;spacingRight=3;rotatable=0;labelPosition=right;points=[];portConstraint=eastwest;" parent="67" vertex="1">
          <mxGeometry y="175" width="270" height="8" as="geometry" />
        </mxCell>
        <mxCell id="olXzEfhFdtPJJ66kYpWC-98" value="+ new(String nombreEmpleado,&amp;nbsp;&lt;div&gt;String direccion,&amp;nbsp;&lt;/div&gt;&lt;div&gt;Date fechaEmision,&amp;nbsp;&lt;/div&gt;&lt;div&gt;double sueldoBruto:&amp;nbsp;&lt;/div&gt;&lt;div&gt;double sueldoNeto,&amp;nbsp;&lt;/div&gt;&lt;div&gt;String desgloceConceptos&lt;span style=&quot;background-color: transparent; color: light-dark(rgb(0, 0, 0), rgb(255, 255, 255));&quot;&gt;): ReciboDeHaberes&lt;/span&gt;&lt;/div&gt;" style="text;html=1;strokeColor=none;fillColor=none;align=left;verticalAlign=middle;spacingLeft=4;spacingRight=4;overflow=hidden;rotatable=0;points=[[0,0.5],[1,0.5]];portConstraint=eastwest;whiteSpace=wrap;" vertex="1" parent="67">
          <mxGeometry y="183" width="270" height="97" as="geometry" />
        </mxCell>
        <mxCell id="66" style="edgeStyle=none;html=1;entryX=0;entryY=0.746;entryDx=0;entryDy=0;exitX=0.999;exitY=0.757;exitDx=0;exitDy=0;exitPerimeter=0;entryPerimeter=0;" parent="1" source="5" target="85" edge="1">
          <mxGeometry relative="1" as="geometry">
            <mxPoint x="710" y="455" as="targetPoint" />
          </mxGeometry>
        </mxCell>
        <mxCell id="89" value="&lt;font style=&quot;font-size: 11px;&quot;&gt;1&lt;/font&gt;" style="text;strokeColor=none;align=center;fillColor=none;html=1;verticalAlign=middle;whiteSpace=wrap;rounded=0;" parent="1" vertex="1">
          <mxGeometry x="606" y="410" width="60" height="30" as="geometry" />
        </mxCell>
        <mxCell id="90" value="&lt;font style=&quot;font-size: 11px;&quot;&gt;*&lt;/font&gt;" style="text;strokeColor=none;align=center;fillColor=none;html=1;verticalAlign=middle;whiteSpace=wrap;rounded=0;" parent="1" vertex="1">
          <mxGeometry x="790" y="410" width="60" height="30" as="geometry" />
        </mxCell>
        <mxCell id="96" style="edgeStyle=none;html=1;endArrow=block;endFill=0;exitX=0.5;exitY=0;exitDx=0;exitDy=0;" parent="1" source="92" target="olXzEfhFdtPJJ66kYpWC-100" edge="1">
          <mxGeometry relative="1" as="geometry" />
        </mxCell>
        <mxCell id="92" value="EmpleadoContratado" style="swimlane;fontStyle=0;align=center;verticalAlign=top;childLayout=stackLayout;horizontal=1;startSize=55;horizontalStack=0;resizeParent=1;resizeParentMax=0;resizeLast=0;collapsible=0;marginBottom=0;html=1;whiteSpace=wrap;" parent="1" vertex="1">
          <mxGeometry x="680" y="840" width="250" height="270" as="geometry" />
        </mxCell>
        <mxCell id="93" value="&lt;span style=&quot;color: rgb(0, 0, 0);&quot;&gt;-&amp;nbsp;&lt;/span&gt;numeroDeContrato: int" style="text;html=1;strokeColor=none;fillColor=none;align=left;verticalAlign=middle;spacingLeft=4;spacingRight=4;overflow=hidden;rotatable=0;points=[[0,0.5],[1,0.5]];portConstraint=eastwest;whiteSpace=wrap;" parent="92" vertex="1">
          <mxGeometry y="55" width="250" height="20" as="geometry" />
        </mxCell>
        <mxCell id="94" value="&lt;font color=&quot;#000000&quot;&gt;&lt;span style=&quot;font-family: sans-serif; white-space: pre; background-color: rgb(255, 255, 255);&quot;&gt;&lt;font&gt;&lt;span style=&quot;font-family: Helvetica; white-space: normal; background-color: rgb(251, 251, 251);&quot;&gt;-&amp;nbsp;&lt;/span&gt;medioDePago&lt;/font&gt;&lt;/span&gt;: String&lt;/font&gt;" style="text;html=1;strokeColor=none;fillColor=none;align=left;verticalAlign=middle;spacingLeft=4;spacingRight=4;overflow=hidden;rotatable=0;points=[[0,0.5],[1,0.5]];portConstraint=eastwest;fontColor=#808080;whiteSpace=wrap;" parent="92" vertex="1">
          <mxGeometry y="75" width="250" height="20" as="geometry" />
        </mxCell>
        <mxCell id="95" value="" style="line;strokeWidth=1;fillColor=none;align=left;verticalAlign=middle;spacingTop=-1;spacingLeft=3;spacingRight=3;rotatable=0;labelPosition=right;points=[];portConstraint=eastwest;" parent="92" vertex="1">
          <mxGeometry y="95" width="250" height="8" as="geometry" />
        </mxCell>
        <mxCell id="olXzEfhFdtPJJ66kYpWC-107" value="# montoRetenciones(): double" style="text;html=1;strokeColor=none;fillColor=none;align=left;verticalAlign=middle;spacingLeft=4;spacingRight=4;overflow=hidden;rotatable=0;points=[[0,0.5],[1,0.5]];portConstraint=eastwest;whiteSpace=wrap;" vertex="1" parent="92">
          <mxGeometry y="103" width="250" height="20" as="geometry" />
        </mxCell>
        <mxCell id="olXzEfhFdtPJJ66kYpWC-110" value="# montoBonificaciones(): double" style="text;html=1;strokeColor=none;fillColor=none;align=left;verticalAlign=middle;spacingLeft=4;spacingRight=4;overflow=hidden;rotatable=0;points=[[0,0.5],[1,0.5]];portConstraint=eastwest;whiteSpace=wrap;" vertex="1" parent="92">
          <mxGeometry y="123" width="250" height="20" as="geometry" />
        </mxCell>
        <mxCell id="olXzEfhFdtPJJ66kYpWC-113" value="# conceptos(): String[]" style="text;html=1;strokeColor=none;fillColor=none;align=left;verticalAlign=middle;spacingLeft=4;spacingRight=4;overflow=hidden;rotatable=0;points=[[0,0.5],[1,0.5]];portConstraint=eastwest;whiteSpace=wrap;" vertex="1" parent="92">
          <mxGeometry y="143" width="250" height="20" as="geometry" />
        </mxCell>
        <mxCell id="olXzEfhFdtPJJ66kYpWC-116" value="&lt;div&gt;+ new&lt;span style=&quot;background-color: transparent;&quot;&gt;(String nombre,&amp;nbsp;&lt;/span&gt;&lt;/div&gt;&lt;div&gt;&lt;span style=&quot;background-color: transparent;&quot;&gt;String direccion,&amp;nbsp;&lt;/span&gt;&lt;/div&gt;&lt;div&gt;&lt;span style=&quot;background-color: transparent;&quot;&gt;String estadoCivil,&amp;nbsp;&lt;/span&gt;&lt;/div&gt;&lt;div&gt;&lt;span style=&quot;background-color: transparent;&quot;&gt;Date fechaNacimiento,&lt;/span&gt;&lt;/div&gt;&lt;div&gt;&lt;span style=&quot;background-color: transparent; color: light-dark(rgb(0, 0, 0), rgb(255, 255, 255));&quot;&gt;double sueldoBasico,&amp;nbsp;&lt;/span&gt;&lt;/div&gt;&lt;div&gt;&lt;span style=&quot;background-color: transparent; color: light-dark(rgb(0, 0, 0), rgb(255, 255, 255));&quot;&gt;int numeroDeContrato,&amp;nbsp;&lt;/span&gt;&lt;/div&gt;&lt;div&gt;&lt;span style=&quot;background-color: transparent; color: light-dark(rgb(0, 0, 0), rgb(255, 255, 255));&quot;&gt;String medioDePago): EmpleadoContratado&lt;/span&gt;&lt;/div&gt;" style="text;html=1;strokeColor=none;fillColor=none;align=left;verticalAlign=middle;spacingLeft=4;spacingRight=4;overflow=hidden;rotatable=0;points=[[0,0.5],[1,0.5]];portConstraint=eastwest;whiteSpace=wrap;" vertex="1" parent="92">
          <mxGeometry y="163" width="250" height="107" as="geometry" />
        </mxCell>
        <mxCell id="olXzEfhFdtPJJ66kYpWC-96" value="empleados" style="text;html=1;align=center;verticalAlign=middle;resizable=0;points=[];autosize=1;strokeColor=none;fillColor=none;" vertex="1" parent="1">
          <mxGeometry x="220" y="410" width="80" height="30" as="geometry" />
        </mxCell>
        <mxCell id="olXzEfhFdtPJJ66kYpWC-118" value="recibosDeHaberes" style="text;html=1;align=center;verticalAlign=middle;resizable=0;points=[];autosize=1;strokeColor=none;fillColor=none;" vertex="1" parent="1">
          <mxGeometry x="670" y="410" width="120" height="30" as="geometry" />
        </mxCell>
      </root>
    </mxGraphModel>
  </diagram>
</mxfile>
